<mxfile host="app.diagrams.net" modified="2021-08-31T09:41:14.459Z" agent="5.0 (X11; Linux x86_64) AppleWebKit/537.36 (KHTML, like Gecko) Chrome/92.0.4515.159 Safari/537.36" etag="EgAFCc3XkBZWXhPz-wwq" version="15.0.3" type="github">
  <diagram id="mpz4HHJnxUas1NucIy5Y" name="Page-1">
    <mxGraphModel dx="782" dy="480" grid="1" gridSize="10" guides="1" tooltips="1" connect="1" arrows="1" fold="1" page="1" pageScale="1" pageWidth="850" pageHeight="1100" math="0" shadow="0">
      <root>
        <mxCell id="0" />
        <mxCell id="1" parent="0" />
        <mxCell id="15F6BbGObB7les-tbo3c-3" value="AWS Cloud" style="outlineConnect=0;gradientColor=none;html=1;whiteSpace=wrap;fontSize=12;fontStyle=0;shape=mxgraph.aws4.group;grIcon=mxgraph.aws4.group_aws_cloud;strokeColor=#858B94;fillColor=none;verticalAlign=top;align=left;spacingLeft=30;fontColor=#858B94;dashed=0;" vertex="1" parent="1">
          <mxGeometry x="100" width="650" height="420" as="geometry" />
        </mxCell>
        <mxCell id="15F6BbGObB7les-tbo3c-4" value="Elastic Container Registry" style="points=[[0,0,0],[0.25,0,0],[0.5,0,0],[0.75,0,0],[1,0,0],[0,1,0],[0.25,1,0],[0.5,1,0],[0.75,1,0],[1,1,0],[0,0.25,0],[0,0.5,0],[0,0.75,0],[1,0.25,0],[1,0.5,0],[1,0.75,0]];outlineConnect=0;fontColor=#232F3E;gradientColor=#F78E04;gradientDirection=north;fillColor=#D05C17;strokeColor=#ffffff;dashed=0;verticalLabelPosition=bottom;verticalAlign=top;align=center;html=1;fontSize=12;fontStyle=0;aspect=fixed;shape=mxgraph.aws4.resourceIcon;resIcon=mxgraph.aws4.ecr;" vertex="1" parent="1">
          <mxGeometry x="365" y="30" width="60" height="60" as="geometry" />
        </mxCell>
        <mxCell id="15F6BbGObB7les-tbo3c-6" value="&lt;font style=&quot;font-size: 14px&quot;&gt;Build And Push Push Docker Image&lt;/font&gt;" style="edgeStyle=orthogonalEdgeStyle;rounded=0;orthogonalLoop=1;jettySize=auto;html=1;" edge="1" parent="1" source="15F6BbGObB7les-tbo3c-5" target="15F6BbGObB7les-tbo3c-4">
          <mxGeometry relative="1" as="geometry" />
        </mxCell>
        <mxCell id="15F6BbGObB7les-tbo3c-5" value="Developer" style="shape=umlActor;verticalLabelPosition=bottom;verticalAlign=top;html=1;outlineConnect=0;" vertex="1" parent="1">
          <mxGeometry x="25" y="30" width="30" height="60" as="geometry" />
        </mxCell>
        <mxCell id="15F6BbGObB7les-tbo3c-10" value="&lt;font style=&quot;font-size: 13px&quot;&gt;Schedule Time&lt;/font&gt;" style="edgeStyle=orthogonalEdgeStyle;rounded=0;orthogonalLoop=1;jettySize=auto;html=1;" edge="1" parent="1" source="15F6BbGObB7les-tbo3c-8" target="15F6BbGObB7les-tbo3c-9">
          <mxGeometry relative="1" as="geometry" />
        </mxCell>
        <mxCell id="15F6BbGObB7les-tbo3c-8" value="&lt;font style=&quot;font-size: 15px&quot;&gt;Cloud watch rules&lt;/font&gt;" style="outlineConnect=0;dashed=0;verticalLabelPosition=bottom;verticalAlign=top;align=center;html=1;shape=mxgraph.aws3.cloudwatch;fillColor=#759C3E;gradientColor=none;" vertex="1" parent="1">
          <mxGeometry x="140" y="170" width="82.5" height="93" as="geometry" />
        </mxCell>
        <mxCell id="15F6BbGObB7les-tbo3c-11" value="&lt;font style=&quot;font-size: 15px&quot;&gt;Pull Image&lt;/font&gt;" style="edgeStyle=orthogonalEdgeStyle;rounded=0;orthogonalLoop=1;jettySize=auto;html=1;" edge="1" parent="1" source="15F6BbGObB7les-tbo3c-9" target="15F6BbGObB7les-tbo3c-4">
          <mxGeometry relative="1" as="geometry" />
        </mxCell>
        <mxCell id="15F6BbGObB7les-tbo3c-13" value="&lt;font style=&quot;font-size: 14px&quot;&gt;Get Data File&lt;/font&gt;" style="edgeStyle=orthogonalEdgeStyle;rounded=0;orthogonalLoop=1;jettySize=auto;html=1;" edge="1" parent="1" source="15F6BbGObB7les-tbo3c-9" target="15F6BbGObB7les-tbo3c-12">
          <mxGeometry relative="1" as="geometry" />
        </mxCell>
        <mxCell id="15F6BbGObB7les-tbo3c-15" value="&lt;font style=&quot;font-size: 15px&quot;&gt;Ingest Data To DB&lt;/font&gt;" style="edgeStyle=orthogonalEdgeStyle;rounded=0;orthogonalLoop=1;jettySize=auto;html=1;" edge="1" parent="1" source="15F6BbGObB7les-tbo3c-9" target="15F6BbGObB7les-tbo3c-14">
          <mxGeometry relative="1" as="geometry">
            <Array as="points">
              <mxPoint x="395" y="323" />
            </Array>
          </mxGeometry>
        </mxCell>
        <mxCell id="15F6BbGObB7les-tbo3c-9" value="&lt;font style=&quot;font-size: 14px&quot;&gt;AWS Batch&lt;/font&gt;" style="points=[[0,0,0],[0.25,0,0],[0.5,0,0],[0.75,0,0],[1,0,0],[0,1,0],[0.25,1,0],[0.5,1,0],[0.75,1,0],[1,1,0],[0,0.25,0],[0,0.5,0],[0,0.75,0],[1,0.25,0],[1,0.5,0],[1,0.75,0]];outlineConnect=0;fontColor=#232F3E;gradientColor=#F78E04;gradientDirection=north;fillColor=#D05C17;strokeColor=#ffffff;dashed=0;verticalLabelPosition=bottom;verticalAlign=top;align=center;html=1;fontSize=12;fontStyle=0;aspect=fixed;shape=mxgraph.aws4.resourceIcon;resIcon=mxgraph.aws4.batch;" vertex="1" parent="1">
          <mxGeometry x="356" y="177.5" width="78" height="78" as="geometry" />
        </mxCell>
        <mxCell id="15F6BbGObB7les-tbo3c-12" value="S3 Bucket Contain Data Files" style="points=[[0,0,0],[0.25,0,0],[0.5,0,0],[0.75,0,0],[1,0,0],[0,1,0],[0.25,1,0],[0.5,1,0],[0.75,1,0],[1,1,0],[0,0.25,0],[0,0.5,0],[0,0.75,0],[1,0.25,0],[1,0.5,0],[1,0.75,0]];outlineConnect=0;fontColor=#232F3E;gradientColor=#60A337;gradientDirection=north;fillColor=#277116;strokeColor=#ffffff;dashed=0;verticalLabelPosition=bottom;verticalAlign=top;align=center;html=1;fontSize=12;fontStyle=0;aspect=fixed;shape=mxgraph.aws4.resourceIcon;resIcon=mxgraph.aws4.s3;" vertex="1" parent="1">
          <mxGeometry x="570" y="40" width="78" height="78" as="geometry" />
        </mxCell>
        <mxCell id="15F6BbGObB7les-tbo3c-14" value="" style="outlineConnect=0;dashed=0;verticalLabelPosition=bottom;verticalAlign=top;align=center;html=1;shape=mxgraph.aws3.rds_db_instance;fillColor=#2E73B8;gradientColor=none;" vertex="1" parent="1">
          <mxGeometry x="670" y="280" width="49.5" height="66" as="geometry" />
        </mxCell>
      </root>
    </mxGraphModel>
  </diagram>
</mxfile>
